{"title":"Sin City A Dame to Kill For 2014 Studio Audio HDRip XviD AC3-GiA","uid":11097618,"size":1105592489,"categoryP":"video","categoryS":"other","magnet":"?xt=urn:btih:3b11ab0948cf77b2309419024852375d74721ac2&amp;dn=Sin+City+A+Dame+to+Kill+For+2014+Studio+Audio+HDRip+XviD+AC3-GiA&amp;tr=udp%3A%2F%2Ftracker.openbittorrent.com%3A80&amp;tr=udp%3A%2F%2Fopen.demonii.com%3A1337&amp;tr=udp%3A%2F%2Ftracker.coppersurfer.tk%3A6969&amp;tr=udp%3A%2F%2Fexodus.desync.com%3A6969","seeders":2,"leechers":0,"uploader":"jacks66","files":-1,"time":1411617499,"description":"Sin City A Dame to Kill For 2014 Studio Audio HDRip XviD AC3-GiANGi\n\n====================================\nSin City A Dame to Kill For 2014 Studio Audio HDRip XviD AC3-GiANGi\n====================================\n\nCo-directors Robert Rodriguez and Frank Miller reunite to bring Miller's &quot;Sin City&quot; graphic novels back to the screen. Weaving together two of Miller's classic stories with new tales, the town's most hard boiled citizens cross paths with some of its more notorious inhabitants. \n\n====================================\n\nGenre.....: Crime | Thriller \n\nActors....: Mickey Rourke, Jessica Alba, Josh Brolin\n\nLanguage..: English \n\nSubs......: N/A\n\nSource....: Sin City A Dame to Kill For 2014 720 WEBRip x264 Studio Audio-JYK [Thanks]\n\nHDRip...: *~giangoulas~*\n\nimdb......: http://www.imdb.com/title/tt0458481/\n\n=====================================\n\n====================================\n\nFormat : AVI\nFormat/Info : Audio Video Interleave\nFile size : 1.03 GiB\nDuration : 1h 34mn\nOverall bit rate : 1 565 Kbps\nWriting application : VirtualDubMod 1.5.10.3 | www.virtualdub-fr.org || (build 2550/release)\nWriting library : VirtualDubMod build 2550/release\nVideo #0\nID : 0\nFormat : MPEG-4 Visual\nFormat profile : Advanced Simple@L5\nFormat settings, BVOP : 1\nFormat settings, QPel : No\nFormat settings, GMC : No warppoints\nFormat settings, Matrix : Default (H.263)\nCodec ID : XVID\nCodec ID/Hint : XviD\nDuration : 1h 34mn\nBit rate : 1 299 Kbps\nWidth : 720 pixels\nHeight : 384 pixels\nDisplay aspect ratio : 1.85:1\nFrame rate : 25.000 fps\nColor space : YUV\nChroma subsampling : 4:2:0\nBit depth : 8 bits\nScan type : Progressive\nCompression mode : Lossy\nBits/(Pixel*Frame) : 0.188\nStream size : 875 MiB (83%)\nWriting library : XviD 73\nAudio #1\nID : 1\nFormat : AC-3\nFormat/Info : Audio Coding 3\nMode extension : CM (complete main)\nFormat settings, Endianness : Big\nCodec ID : 2000\nDuration : 1h 34mn\nBit rate mode : Constant\nBit rate : 256 Kbps\nChannel(s) : 2 channels\nChannel positions : Front: L R\nSampling rate : 44.1 KHz\nBit depth : 16 bits\nCompression mode : Lossy\nStream size : 172 MiB (16%)\nAlignment : Split accross interleaves\nInterleave, duration : 40 ms (1.00 video frame)\nInterleave, preload duration : 500 ms\n\n=====================================\n\n\nScreens:\n &lt;a href=&quot;\nhttp://imgsleek.com/img-5423753fe8835.html&quot; rel=&quot;nofollow&quot; target=&quot;_NEW&quot;&gt;\nhttp://imgsleek.com/img-5423753fe8835.html&lt;/a&gt;\n &lt;a href=&quot;\nhttp://imgsleek.com/img-5423753fef979.html&quot; rel=&quot;nofollow&quot; target=&quot;_NEW&quot;&gt;\nhttp://imgsleek.com/img-5423753fef979.html&lt;/a&gt;\n &lt;a href=&quot;\nhttp://imgsleek.com/img-54237540019c7.html&quot; rel=&quot;nofollow&quot; target=&quot;_NEW&quot;&gt;\nhttp://imgsleek.com/img-54237540019c7.html&lt;/a&gt;\n","torrent":{"xt":"urn:btih:3b11ab0948cf77b2309419024852375d74721ac2","amp;dn":"Sin+City+A+Dame+to+Kill+For+2014+Studio+Audio+HDRip+XviD+AC3-GiA","amp;tr":["udp%3A%2F%2Ftracker.openbittorrent.com%3A80","udp%3A%2F%2Fopen.demonii.com%3A1337","udp%3A%2F%2Ftracker.coppersurfer.tk%3A6969","udp%3A%2F%2Fexodus.desync.com%3A6969"],"infoHash":"3b11ab0948cf77b2309419024852375d74721ac2","infoHashBuffer":{"type":"Buffer","data":[59,17,171,9,72,207,119,178,48,148,25,2,72,82,55,93,116,114,26,194]},"announce":[],"urlList":[]}}